{"asset":{"version":"2.0","generator":"Blockbench 4.2.4 glTF exporter"},"scenes":[{"nodes":[1],"name":"blockbench_export"}],"scene":0,"nodes":[{"translation":[0,-0.1875,0.0421875],"name":"cylinder","mesh":0},{"children":[0]}],"bufferViews":[{"buffer":0,"byteOffset":0,"byteLength":5040,"target":34962,"byteStride":12},{"buffer":0,"byteOffset":5040,"byteLength":5040,"target":34962,"byteStride":12},{"buffer":0,"byteOffset":10080,"byteLength":3360,"target":34962,"byteStride":8},{"buffer":0,"byteOffset":13440,"byteLength":1212,"target":34963}],"buffers":[{"byteLength":14652,"uri":"data:application/octet-stream;base64,"}],"accessors":[{"bufferView":0,"componentType":5126,"count":420,"max":[0.03125,0.47187501192092896,0.14218750596046448],"min":[-0.03125,-0.0062500000931322575,-0.11874999850988388],"type":"VEC3"},{"bufferView":1,"componentType":5126,"count":420,"max":[1,1,1],"min":[-1,-1,-1],"type":"VEC3"},{"bufferView":2,"componentType":5126,"count":420,"max":[0.75,1],"min":[0,0.1875],"type":"VEC2"},{"bufferView":3,"componentType":5123,"count":606,"max":[419],"min":[0],"type":"SCALAR"}],"materials":[{"pbrMetallicRoughness":{"metallicFactor":0,"roughnessFactor":1,"baseColorTexture":{"index":0}},"alphaMode":"MASK","alphaCutoff":0.05,"doubleSided":true}],"textures":[{"sampler":0,"source":0,"name":"texture.png"}],"samplers":[{"magFilter":9728,"minFilter":9728,"wrapS":33071,"wrapT":33071}],"images":[{"mimeType":"image/png","uri":"data:image/png;base64,"}],"meshes":[{"primitives":[{"mode":4,"attributes":{"POSITION":0,"NORMAL":1,"TEXCOORD_0":2},"indices":3,"material":0}]}]}