{"asset":{"version":"2.0","generator":"Blockbench 4.2.4 glTF exporter"},"scenes":[{"nodes":[7],"name":"blockbench_export"}],"scene":0,"nodes":[{"rotation":[0.7071067811865475,8.285641204067208e-10,-8.285650131603374e-10,0.7071067811865476],"translation":[0,3.3306690738754696e-16,-8.326672684688674e-17],"name":"plane","mesh":0},{"translation":[0.0625,0,0],"name":"main","children":[0]},{"rotation":[0,-1,0,6.123233995736766e-17],"translation":[-0.03125,0,0],"name":"cube","mesh":1},{"translation":[0.09375,0,0],"name":"left","children":[2]},{"translation":[0.03125,0,0],"name":"cube","mesh":2},{"translation":[0.03125,0,0],"name":"right","children":[4]},{"translation":[-0.0625,0.46875,0],"name":"root","children":[1,3,5]},{"children":[6]}],"bufferViews":[{"buffer":0,"byteOffset":0,"byteLength":288,"target":34962,"byteStride":12},{"buffer":0,"byteOffset":288,"byteLength":288,"target":34962,"byteStride":12},{"buffer":0,"byteOffset":576,"byteLength":192,"target":34962,"byteStride":8},{"buffer":0,"byteOffset":768,"byteLength":72,"target":34963},{"buffer":0,"byteOffset":840,"byteLength":864,"target":34962,"byteStride":12},{"buffer":0,"byteOffset":1704,"byteLength":864,"target":34962,"byteStride":12},{"buffer":0,"byteOffset":2568,"byteLength":576,"target":34962,"byteStride":8},{"buffer":0,"byteOffset":3144,"byteLength":216,"target":34963},{"buffer":0,"byteOffset":3360,"byteLength":864,"target":34962,"byteStride":12},{"buffer":0,"byteOffset":4224,"byteLength":864,"target":34962,"byteStride":12},{"buffer":0,"byteOffset":5088,"byteLength":576,"target":34962,"byteStride":8},{"buffer":0,"byteOffset":5664,"byteLength":216,"target":34963},{"buffer":0,"byteOffset":5880,"byteLength":32},{"buffer":0,"byteOffset":5912,"byteLength":128},{"buffer":0,"byteOffset":6040,"byteLength":16},{"buffer":0,"byteOffset":6056,"byteLength":48},{"buffer":0,"byteOffset":6104,"byteLength":20},{"buffer":0,"byteOffset":6124,"byteLength":80},{"buffer":0,"byteOffset":6204,"byteLength":12},{"buffer":0,"byteOffset":6216,"byteLength":36},{"buffer":0,"byteOffset":6252,"byteLength":32},{"buffer":0,"byteOffset":6284,"byteLength":128},{"buffer":0,"byteOffset":6412,"byteLength":20},{"buffer":0,"byteOffset":6432,"byteLength":60},{"buffer":0,"byteOffset":6492,"byteLength":20},{"buffer":0,"byteOffset":6512,"byteLength":80},{"buffer":0,"byteOffset":6592,"byteLength":12},{"buffer":0,"byteOffset":6604,"byteLength":36}],"buffers":[{"byteLength":6640,"uri":"data:application/octet-stream;base64,"}],"accessors":[{"bufferView":0,"componentType":5126,"count":24,"max":[0.03125,0,-6.938893903907228e-18],"min":[-0.03125,0,-0.4437499940395355],"type":"VEC3"},{"bufferView":1,"componentType":5126,"count":24,"max":[0,1,0],"min":[0,1,0],"type":"VEC3"},{"bufferView":2,"componentType":5126,"count":24,"max":[0.75,0.75],"min":[0.75,0.25],"type":"VEC2"},{"bufferView":3,"componentType":5123,"count":36,"max":[23],"min":[0],"type":"SCALAR"},{"bufferView":4,"componentType":5126,"count":72,"max":[-0.00390625,0.031458333134651184,0.01875000074505806],"min":[-0.06640625,-0.4685416519641876,-0.01875000074505806],"type":"VEC3"},{"bufferView":5,"componentType":5126,"count":72,"max":[1,1,1],"min":[-0.9997994303703308,-1,-1],"type":"VEC3"},{"bufferView":6,"componentType":5126,"count":72,"max":[0.75,0.25],"min":[0.25,0.25],"type":"VEC2"},{"bufferView":7,"componentType":5123,"count":108,"max":[71],"min":[0],"type":"SCALAR"},{"bufferView":8,"componentType":5126,"count":72,"max":[-0.004687500186264515,0.03125,0.01875000074505806],"min":[-0.06718750298023224,-0.46875,-0.01875000074505806],"type":"VEC3"},{"bufferView":9,"componentType":5126,"count":72,"max":[1,1,1],"min":[-0.9997994303703308,-1,-1],"type":"VEC3"},{"bufferView":10,"componentType":5126,"count":72,"max":[0.75,0.25],"min":[0.25,0.25],"type":"VEC2"},{"bufferView":11,"componentType":5123,"count":108,"max":[71],"min":[0],"type":"SCALAR"},{"bufferView":12,"componentType":5126,"count":8,"max":[1],"min":[0],"type":"SCALAR"},{"bufferView":13,"componentType":5126,"count":8,"max":[0,0,0.9883615374565125,1],"min":[0,0,-0.8660253882408142,-1],"type":"VEC4"},{"bufferView":14,"componentType":5126,"count":4,"max":[1],"min":[0],"type":"SCALAR"},{"bufferView":15,"componentType":5126,"count":4,"max":[0.09375,0,0],"min":[-0.17031249403953552,0,0],"type":"VEC3"},{"bufferView":16,"componentType":5126,"count":5,"max":[0.6666666865348816],"min":[0],"type":"SCALAR"},{"bufferView":17,"componentType":5126,"count":5,"max":[0,0,0.8660253882408142,1],"min":[0,0,0,-1],"type":"VEC4"},{"bufferView":18,"componentType":5126,"count":3,"max":[0.6666666865348816],"min":[0],"type":"SCALAR"},{"bufferView":19,"componentType":5126,"count":3,"max":[0.03125,0,0],"min":[-0.10312499850988388,0,0],"type":"VEC3"},{"bufferView":20,"componentType":5126,"count":8,"max":[1],"min":[0],"type":"SCALAR"},{"bufferView":21,"componentType":5126,"count":8,"max":[0,0,1,1],"min":[0,0,-1,-1],"type":"VEC4"},{"bufferView":22,"componentType":5126,"count":5,"max":[1],"min":[0],"type":"SCALAR"},{"bufferView":23,"componentType":5126,"count":5,"max":[0.0625,0,0],"min":[-0.13593749701976776,0,0],"type":"VEC3"},{"bufferView":24,"componentType":5126,"count":5,"max":[1],"min":[0],"type":"SCALAR"},{"bufferView":25,"componentType":5126,"count":5,"max":[0,1,0,1],"min":[0,0,0,-1],"type":"VEC4"},{"bufferView":26,"componentType":5126,"count":3,"max":[1],"min":[0],"type":"SCALAR"},{"bufferView":27,"componentType":5126,"count":3,"max":[0.13593749701976776,0.46875,0],"min":[-0.07187499850988388,0.46875,0],"type":"VEC3"}],"materials":[{"pbrMetallicRoughness":{"metallicFactor":0,"roughnessFactor":1,"baseColorTexture":{"index":0}},"alphaMode":"MASK","alphaCutoff":0.05,"doubleSided":true}],"textures":[{"sampler":0,"source":0,"name":"texture.png"}],"samplers":[{"magFilter":9728,"minFilter":9728,"wrapS":33071,"wrapT":33071}],"images":[{"mimeType":"image/png","uri":"data:image/png;base64,"}],"meshes":[{"primitives":[{"mode":4,"attributes":{"POSITION":0,"NORMAL":1,"TEXCOORD_0":2},"indices":3,"material":0}]},{"primitives":[{"mode":4,"attributes":{"POSITION":4,"NORMAL":5,"TEXCOORD_0":6},"indices":7,"material":0}]},{"primitives":[{"mode":4,"attributes":{"POSITION":8,"NORMAL":9,"TEXCOORD_0":10},"indices":11,"material":0}]}],"animations":[{"name":"flip","samplers":[{"input":12,"output":13,"interpolation":"LINEAR"},{"input":14,"output":15,"interpolation":"LINEAR"},{"input":16,"output":17,"interpolation":"LINEAR"},{"input":18,"output":19,"interpolation":"LINEAR"},{"input":20,"output":21,"interpolation":"LINEAR"},{"input":22,"output":23,"interpolation":"LINEAR"},{"input":24,"output":25,"interpolation":"LINEAR"},{"input":26,"output":27,"interpolation":"LINEAR"}],"channels":[{"sampler":0,"target":{"node":3,"path":"rotation"}},{"sampler":1,"target":{"node":3,"path":"translation"}},{"sampler":2,"target":{"node":5,"path":"rotation"}},{"sampler":3,"target":{"node":5,"path":"translation"}},{"sampler":4,"target":{"node":1,"path":"rotation"}},{"sampler":5,"target":{"node":1,"path":"translation"}},{"sampler":6,"target":{"node":6,"path":"rotation"}},{"sampler":7,"target":{"node":6,"path":"translation"}}]}]}