{"asset":{"version":"2.0","generator":"Blockbench 4.2.4 glTF exporter"},"scenes":[{"nodes":[1],"name":"blockbench_export"}],"scene":0,"nodes":[{"rotation":[0,0,0.7071067811865475,0.7071067811865476],"translation":[0,-0.1828125,0],"name":"plane","mesh":0},{"children":[0]}],"bufferViews":[{"buffer":0,"byteOffset":0,"byteLength":6480,"target":34962,"byteStride":12},{"buffer":0,"byteOffset":6480,"byteLength":6480,"target":34962,"byteStride":12},{"buffer":0,"byteOffset":12960,"byteLength":4320,"target":34962,"byteStride":8},{"buffer":0,"byteOffset":17280,"byteLength":1548,"target":34963}],"buffers":[{"byteLength":18828,"uri":"data:application/octet-stream;base64,"}],"accessors":[{"bufferView":0,"componentType":5126,"count":540,"max":[0.8125,0.07187499850988388,0.08623935282230377],"min":[-0.34155499935150146,-0.07187499850988388,-0.09561662375926971],"type":"VEC3"},{"bufferView":1,"componentType":5126,"count":540,"max":[0.9733227491378784,1,0.9509389996528625],"min":[-0.9063077569007874,-0.9818648099899292,-0.9418060183525085],"type":"VEC3"},{"bufferView":2,"componentType":5126,"count":540,"max":[0.75,0.25],"min":[0.125,0.125],"type":"VEC2"},{"bufferView":3,"componentType":5123,"count":774,"max":[539],"min":[0],"type":"SCALAR"}],"materials":[{"pbrMetallicRoughness":{"metallicFactor":0,"roughnessFactor":1,"baseColorTexture":{"index":0}},"alphaMode":"MASK","alphaCutoff":0.05,"doubleSided":true}],"textures":[{"sampler":0,"source":0,"name":"texture.png"}],"samplers":[{"magFilter":9728,"minFilter":9728,"wrapS":33071,"wrapT":33071}],"images":[{"mimeType":"image/png","uri":"data:image/png;base64,"}],"meshes":[{"primitives":[{"mode":4,"attributes":{"POSITION":0,"NORMAL":1,"TEXCOORD_0":2},"indices":3,"material":0}]}]}