{"asset":{"version":"2.0","generator":"Blockbench 4.2.4 glTF exporter"},"scenes":[{"nodes":[1],"name":"blockbench_export"}],"scene":0,"nodes":[{"rotation":[0.19509032201612825,0,0,0.9807852804032304],"translation":[0,0,-6.938893903907228e-18],"name":"rat","mesh":0},{"children":[0]}],"bufferViews":[{"buffer":0,"byteOffset":0,"byteLength":15120,"target":34962,"byteStride":12},{"buffer":0,"byteOffset":15120,"byteLength":15120,"target":34962,"byteStride":12},{"buffer":0,"byteOffset":30240,"byteLength":10080,"target":34962,"byteStride":8},{"buffer":0,"byteOffset":40320,"byteLength":3492,"target":34963}],"buffers":[{"byteLength":43812,"uri":"data:application/octet-stream;base64,"}],"accessors":[{"bufferView":0,"componentType":5126,"count":1260,"max":[0.05092960223555565,0.08180136233568192,0.10238893330097198],"min":[-0.04907039552927017,0.0015777950175106525,-0.05985129624605179],"type":"VEC3"},{"bufferView":1,"componentType":5126,"count":1260,"max":[0.9985414147377014,0.9890692830085754,0.9598181247711182],"min":[-0.9941036105155945,-0.9893043041229248,-0.9608350396156311],"type":"VEC3"},{"bufferView":2,"componentType":5126,"count":1260,"max":[0.75,0.75],"min":[0.25,0.25],"type":"VEC2"},{"bufferView":3,"componentType":5123,"count":1746,"max":[1259],"min":[0],"type":"SCALAR"}],"materials":[{"pbrMetallicRoughness":{"metallicFactor":0,"roughnessFactor":1,"baseColorTexture":{"index":0}},"alphaMode":"MASK","alphaCutoff":0.05,"doubleSided":true}],"textures":[{"sampler":0,"source":0,"name":"texture.png"}],"samplers":[{"magFilter":9728,"minFilter":9728,"wrapS":33071,"wrapT":33071}],"images":[{"mimeType":"image/png","uri":"data:image/png;base64,"}],"meshes":[{"primitives":[{"mode":4,"attributes":{"POSITION":0,"NORMAL":1,"TEXCOORD_0":2},"indices":3,"material":0}]}]}