{"asset":{"version":"2.0","generator":"Blockbench 4.2.4 glTF exporter"},"scenes":[{"nodes":[1],"name":"blockbench_export"}],"scene":0,"nodes":[{"rotation":[0.19509032201612825,0,0,0.9807852804032304],"translation":[-1.3989705451425863e-18,0.10625000000000004,0.029687500000000023],"name":"rat_selection","mesh":0},{"children":[0]}],"bufferViews":[{"buffer":0,"byteOffset":0,"byteLength":18672,"target":34962,"byteStride":12},{"buffer":0,"byteOffset":18672,"byteLength":18672,"target":34962,"byteStride":12},{"buffer":0,"byteOffset":37344,"byteLength":12448,"target":34962,"byteStride":8},{"buffer":0,"byteOffset":49792,"byteLength":4308,"target":34963}],"buffers":[{"byteLength":54100,"uri":"data:application/octet-stream;base64,"}],"accessors":[{"bufferView":0,"componentType":5126,"count":1556,"max":[0.07187499850988388,0.11932265758514404,0.12080632895231247],"min":[-0.07187499850988388,-0.10992538183927536,-0.1418735384941101],"type":"VEC3"},{"bufferView":1,"componentType":5126,"count":1556,"max":[1,1,0.9914448857307434],"min":[-1,-0.9760438203811646,-0.9657806754112244],"type":"VEC3"},{"bufferView":2,"componentType":5126,"count":1556,"max":[0.75,1],"min":[0,0.25],"type":"VEC2"},{"bufferView":3,"componentType":5123,"count":2154,"max":[1555],"min":[0],"type":"SCALAR"}],"materials":[{"pbrMetallicRoughness":{"metallicFactor":0,"roughnessFactor":1,"baseColorTexture":{"index":0}},"alphaMode":"MASK","alphaCutoff":0.05,"doubleSided":true}],"textures":[{"sampler":0,"source":0,"name":"texture.png"}],"samplers":[{"magFilter":9728,"minFilter":9728,"wrapS":33071,"wrapT":33071}],"images":[{"mimeType":"image/png","uri":"data:image/png;base64,"}],"meshes":[{"primitives":[{"mode":4,"attributes":{"POSITION":0,"NORMAL":1,"TEXCOORD_0":2},"indices":3,"material":0}]}]}